<svg xmlns="http://www.w3.org/2000/svg" width="120.046" height="82.725" viewBox="0 0 120.046 82.725">
  <g id="Group_51" data-name="Group 51" transform="translate(-23.084 -40.411)">
    <path id="Rectangle_158" data-name="Rectangle 158" d="M5,0H40A10,10,0,0,1,50,10V44a5,5,0,0,1-5,5H18A18,18,0,0,1,0,31V5A5,5,0,0,1,5,0Z" transform="translate(47.59 41.906)" fill="#fff1da"/>
    <g id="plane" transform="translate(14.79 29.05)">
      <g id="Group" transform="translate(4.626 12.835)">
        <path id="Vector" d="M7.293,0C3.265,0,0,1.515,0,3.383S3.265,6.763,7.293,6.763a13.371,13.371,0,0,0,4.537-.734A1.582,1.582,0,0,0,12.943,4.6V2.169A1.578,1.578,0,0,0,11.829.736,13.333,13.333,0,0,0,7.293,0Z" transform="translate(66.562 50.406) rotate(-32.505)" fill="#d5d6db"/>
        <path id="Vector-2" data-name="Vector" d="M5.288,0C2.368,0,0,1.1,0,2.451S2.369,4.9,5.288,4.9a9.706,9.706,0,0,0,3.29-.533,1.147,1.147,0,0,0,.807-1.04V1.573A1.144,1.144,0,0,0,8.578.533,9.672,9.672,0,0,0,5.288,0Z" transform="matrix(0.843, -0.537, 0.537, 0.843, 61.478, 21.917)" fill="#d5d6db"/>
        <path id="Vector-3" data-name="Vector" d="M7.9,0H1.04A.965.965,0,0,0,0,.866a.74.74,0,0,0,.073.321L7.449,16.831H30.317L8.6.228A1.158,1.158,0,0,0,7.9,0Z" transform="translate(47.754 23.563) rotate(-32.508)" fill="#029bc5"/>
        <path id="Vector-4" data-name="Vector" d="M48.391,15.022,15.282,9.043,0,3.373V0L103.045.88A20.212,20.212,0,0,1,111.781,2.9a16.076,16.076,0,0,1,3.17,2.063,10.808,10.808,0,0,1,2.142,2.361c.638.975,2.321,2.063,2.353,3.256,0,0-1.093,4.726-8.912,4.445H48.391Z" transform="matrix(0.846, -0.533, 0.533, 0.846, 14.621, 62.16)" fill="#e1e6e9"/>
        <path id="Vector-5" data-name="Vector" d="M.493,18.751A.819.819,0,0,0,.175,20a1.152,1.152,0,0,0,.91.412H7.934a11.331,11.331,0,0,0,3.831-.661L75.995,0,38.416.691Z" transform="translate(31.194 64.012) rotate(-32.391)" fill="#029bc5"/>
        <path id="Vector-6" data-name="Vector" d="M7.062,0H1.4A1.3,1.3,0,0,0,0,1.167a.994.994,0,0,0,.068.361L6.235,17.453l16.6.143L8.2.489A1.5,1.5,0,0,0,7.062,0Z" transform="matrix(0.843, -0.537, 0.537, 0.843, 3.668, 47.091)" fill="#029bc5"/>
        <path id="Vector-7" data-name="Vector" d="M.189,4.58a.257.257,0,0,0-.158.366A.342.342,0,0,0,.34,5.1H5.63a.393.393,0,0,0,.121-.019L21.324,0l-9.8,0Z" transform="matrix(0.845, -0.535, 0.535, 0.845, 12.417, 65.843)" fill="#029bc5"/>
        <path id="Vector-8" data-name="Vector" d="M5.086,0A12.375,12.375,0,0,0,.107,3.567a.624.624,0,0,0,.3.928.943.943,0,0,0,.4.089h9.755A11.179,11.179,0,0,0,8.355,2.138,16.571,16.571,0,0,0,5.086,0Z" transform="translate(102.271 10.433) rotate(-32.487)" fill="#029bc5"/>
        <path id="Vector-9" data-name="Vector" d="M6.362,0V9.691H0V0Z" transform="translate(93.221 16.754) rotate(-32.275)" fill="#d5d6db"/>
        <g id="Group-2" data-name="Group" transform="translate(39.5 27.196)">
          <path id="Vector-10" data-name="Vector" d="M0,1.157V2.192A1.309,1.309,0,0,0,1.437,3.309,1.291,1.291,0,0,0,2.779,2.192V1.157A1.289,1.289,0,0,0,1.39,0h0A1.29,1.29,0,0,0,0,1.157Z" transform="translate(49.803 -6.606) rotate(-32.353)" fill="#3a556a"/>
          <path id="Vector-11" data-name="Vector" d="M0,1.157V2.192A1.309,1.309,0,0,0,1.437,3.309,1.291,1.291,0,0,0,2.779,2.192V1.157A1.29,1.29,0,0,0,1.39,0h0A1.29,1.29,0,0,0,0,1.157Z" transform="translate(45.338 -3.834) rotate(-32.353)" fill="#3a556a"/>
          <path id="Vector-12" data-name="Vector" d="M0,1.157V2.192A1.309,1.309,0,0,0,1.437,3.309,1.291,1.291,0,0,0,2.779,2.192V1.157A1.29,1.29,0,0,0,1.389,0h0A1.289,1.289,0,0,0,0,1.157Z" transform="translate(40.874 -1.061) rotate(-32.353)" fill="#3a556a"/>
          <path id="Vector-13" data-name="Vector" d="M0,1.157V2.192A1.309,1.309,0,0,0,1.437,3.309,1.291,1.291,0,0,0,2.779,2.192V1.157A1.29,1.29,0,0,0,1.389,0h0A1.289,1.289,0,0,0,0,1.157Z" transform="translate(36.409 1.711) rotate(-32.353)" fill="#3a556a"/>
          <path id="Vector-14" data-name="Vector" d="M0,1.157V2.193A1.289,1.289,0,0,0,1.39,3.349a1.289,1.289,0,0,0,1.39-1.156V1.157A1.288,1.288,0,0,0,1.391,0h0A1.29,1.29,0,0,0,0,1.157Z" transform="matrix(0.845, -0.535, 0.535, 0.845, 31.944, 4.484)" fill="#3a556a"/>
          <path id="Vector-15" data-name="Vector" d="M0,1.157V2.193A1.289,1.289,0,0,0,1.39,3.349a1.289,1.289,0,0,0,1.39-1.156V1.157A1.288,1.288,0,0,0,1.391,0h0A1.29,1.29,0,0,0,0,1.157Z" transform="matrix(0.845, -0.535, 0.535, 0.845, 27.479, 7.256)" fill="#3a556a"/>
          <path id="Vector-16" data-name="Vector" d="M0,1.157V2.193A1.29,1.29,0,0,0,1.391,3.348,1.289,1.289,0,0,0,2.779,2.193V1.157A1.289,1.289,0,0,0,1.389,0,1.29,1.29,0,0,0,0,1.157Z" transform="translate(23.015 10.029) rotate(-32.349)" fill="#3a556a"/>
          <path id="Vector-17" data-name="Vector" d="M0,1.157V2.193A1.29,1.29,0,0,0,1.391,3.348,1.289,1.289,0,0,0,2.779,2.193V1.157A1.289,1.289,0,0,0,1.389,0,1.29,1.29,0,0,0,0,1.157Z" transform="translate(18.55 12.801) rotate(-32.349)" fill="#3a556a"/>
          <path id="Vector-18" data-name="Vector" d="M0,1.157V2.193A1.29,1.29,0,0,0,1.391,3.348,1.289,1.289,0,0,0,2.779,2.193V1.157A1.29,1.29,0,0,0,1.389,0,1.29,1.29,0,0,0,0,1.157Z" transform="translate(14.086 15.573) rotate(-32.349)" fill="#3a556a"/>
          <path id="Vector-19" data-name="Vector" d="M0,1.156H0V2.193A1.29,1.29,0,0,0,1.391,3.348,1.289,1.289,0,0,0,2.779,2.193V1.157A1.289,1.289,0,0,0,1.389,0,1.289,1.289,0,0,0,0,1.156Z" transform="translate(9.62 18.347) rotate(-32.349)" fill="#3a556a"/>
          <path id="Vector-20" data-name="Vector" d="M0,1.156H0V2.193A1.29,1.29,0,0,0,1.391,3.348,1.289,1.289,0,0,0,2.779,2.193V1.157A1.29,1.29,0,0,0,1.39,0,1.289,1.289,0,0,0,0,1.156Z" transform="matrix(0.845, -0.535, 0.535, 0.845, 5.157, 21.118)" fill="#3a556a"/>
        </g>
      </g>
    </g>
  </g>
</svg>
