<svg xmlns="http://www.w3.org/2000/svg" width="92" height="78" viewBox="0 0 92 78">
  <g id="Group_48" data-name="Group 48" transform="translate(0 0)">
    <path id="Rectangle_157" data-name="Rectangle 157" d="M18,0H45a5,5,0,0,1,5,5V39A10,10,0,0,1,40,49H5a5,5,0,0,1-5-5V18A18,18,0,0,1,18,0Z" transform="translate(92 78) rotate(-180)" fill="#fff1da"/>
    <g id="satellite-dish">
      <g id="Group">
        <path id="Vector" d="M11.217,0,0,16.585H12.518l1.206-.787V1.471L13.1.9Z" transform="translate(10.422 49.754)" fill="#407093"/>
        <path id="Vector-2" data-name="Vector" d="M12.8,0H12L0,17.749l.715.787H5.888l11.161-16.5Z" transform="translate(4.761 47.803)" fill="#365e7d"/>
        <path id="Vector-3" data-name="Vector" d="M1.362,0A1.362,1.362,0,0,0,0,1.362V3.087A1.362,1.362,0,0,0,1.361,4.448H17.914a1.361,1.361,0,0,0,1.362-1.361V1.362A1.362,1.362,0,0,0,17.914,0H1.362Z" transform="translate(8.486 65.552)" fill="#4a80aa"/>
        <path id="Vector-4" data-name="Vector" d="M8.768,1.362A1.362,1.362,0,0,1,10.129,0H1.362A1.362,1.362,0,0,0,0,1.362V3.087A1.361,1.361,0,0,0,1.362,4.448h8.768A1.361,1.361,0,0,1,8.768,3.087h0Z" transform="translate(0 65.552)" fill="#407093"/>
        <path id="Vector-5" data-name="Vector" d="M0,3.476a7.992,7.992,0,0,0,5.136,7.463A7.8,7.8,0,0,0,8.475,8.847V7.107L.8,0A7.946,7.946,0,0,0,0,3.476Z" transform="translate(20.442 39.983)" fill="#4a80aa"/>
        <path id="Vector-6" data-name="Vector" d="M5.9,2.272,3.443,0h-1a7.789,7.789,0,0,0,7.9,13.026A7.793,7.793,0,0,1,5.117,5.667h0A7.748,7.748,0,0,1,5.9,2.272Z" transform="translate(15.459 37.819)" fill="#407093"/>
        <path id="Vector-7" data-name="Vector" d="M3.013.925,0,3.938v.382L3.76,8.24l.7.163L7.477,5.389a3.157,3.157,0,0,0,0-4.465h0A3.157,3.157,0,0,0,3.013.925Z" transform="translate(58.334)" fill="#ffd086"/>
        <path id="Vector-8" data-name="Vector" d="M7.478.925a3.157,3.157,0,0,0-4.465,0L0,3.938v.382L1.994,6.4C3.182,5.161,4.363,3.94,4.969,3.333A4.044,4.044,0,0,1,8.31,2.415h0A3.138,3.138,0,0,0,7.478.925Z" transform="translate(58.334)" fill="#ffc365"/>
        <g id="Group-2" data-name="Group" transform="translate(19.623 3.41)">
          <path id="Vector-9" data-name="Vector" d="M35.769,5.535.953,2.108A1.056,1.056,0,0,1,1.16.005L35.976,3.432a1.057,1.057,0,0,1-.1,2.108C35.839,5.54,35.8,5.538,35.769,5.535Z" fill="#365e7d"/>
        </g>
        <g id="Group-3" data-name="Group" transform="translate(29.59 6.837)">
          <path id="Vector-10" data-name="Vector" d="M.035,7.843a1.056,1.056,0,0,1,.754-1.29L25.639.035a1.056,1.056,0,0,1,.536,2.044L1.325,8.6a1.062,1.062,0,0,1-.269.035h0A1.057,1.057,0,0,1,.035,7.843Z" fill="#407093"/>
        </g>
        <g id="Group-4" data-name="Group" transform="translate(57.786 10.186)">
          <path id="Vector-11" data-name="Vector" d="M3.411,36,.005,1.159a1.056,1.056,0,1,1,2.1-.205L5.513,35.791a1.057,1.057,0,0,1-.949,1.154c-.035,0-.07.005-.1.005A1.057,1.057,0,0,1,3.411,36Z" fill="#365e7d"/>
        </g>
        <g id="Group-5" data-name="Group" transform="translate(51.168 10.188)">
          <path id="Vector-12" data-name="Vector" d="M.786,27.024a1.056,1.056,0,0,1-.75-1.292L6.65.786a1.056,1.056,0,1,1,2.042.541L2.078,26.273a1.057,1.057,0,0,1-1.02.786h0A1.064,1.064,0,0,1,.786,27.024Z" fill="#407093"/>
        </g>
        <path id="Vector-13" data-name="Vector" d="M4.272,0V6.313H0V0Z" transform="matrix(0.707, -0.707, 0.707, 0.707, 55.307, 6.964)" fill="#ffc365"/>
        <path id="Vector-14" data-name="Vector" d="M5.243,2.222,3.021,0,0,3.021,2.287,5.308C3.013,4.548,4.147,3.362,5.243,2.222Z" transform="translate(55.314 3.938)" fill="#ffa90f"/>
        <g id="Group-6" data-name="Group" transform="translate(53.585 5.23)">
          <path id="Vector-15" data-name="Vector" d="M6.119,7.613.309,1.8A1.056,1.056,0,0,1,1.8.309l5.81,5.809A1.056,1.056,0,1,1,6.119,7.613Z" fill="#4a80aa"/>
        </g>
        <path id="Vector-16" data-name="Vector" d="M4.161,0c-4.689,10.587-5.5,21.951-1.993,31.751,9.7,8.746,24.179,10.089,37.512,4.591l-.148-.665Z" transform="translate(21.6 13.36)" fill="#b5dcff"/>
        <g id="Group-7" data-name="Group" transform="translate(13.755 5.376)">
          <path id="Vector-17" data-name="Vector" d="M4.091,0,3.279.08C-2.431,13.927-.764,29.016,8.913,38.693q.879.879,1.817,1.67C6.651,30.574,7.314,18.932,12.195,8.174h0Z" fill="#8bcaff"/>
        </g>
        <path id="Vector-18" data-name="Vector" d="M3.032,0a1.73,1.73,0,0,0-.965.487L.507,2.047A1.732,1.732,0,0,0,0,3.259l35.76,35.76a1.361,1.361,0,0,0,1.925,0l1.22-1.22a1.362,1.362,0,0,0,0-1.925Z" transform="translate(25.46 10.628)" fill="#dbedff"/>
        <path id="Vector-19" data-name="Vector" d="M10.857,9.2a1.7,1.7,0,0,1,1-.486L3.544.4A1.362,1.362,0,0,0,1.619.4L.4,1.619a1.361,1.361,0,0,0,0,1.925l8.433,8.433a1.7,1.7,0,0,1,.5-1.249h0Z" transform="translate(16.691 1.973)" fill="#b5dcff"/>
      </g>
    </g>
  </g>
</svg>
