<svg id="Group_7" data-name="Group 7" xmlns="http://www.w3.org/2000/svg" width="47" height="48" viewBox="0 0 47 48">
  <rect id="Rectangle_21" data-name="Rectangle 21" width="47" height="48" rx="13" fill="#f0bb1f"/>
  <g id="selection_1" data-name="selection 1" transform="translate(13 13)">
    <g id="Group">
      <g id="Group-2" data-name="Group">
        <path id="Vector" d="M18.064,22a.541.541,0,0,1-.539-.545V20.274H4.476v1.181A.549.549,0,0,1,3.937,22H.544A.55.55,0,0,1,0,21.455V18.064a.542.542,0,0,1,.544-.539H1.725V4.476H.544A.549.549,0,0,1,0,3.937V.544A.544.544,0,0,1,.544,0H3.937a.542.542,0,0,1,.539.544V1.725H17.525V.544A.549.549,0,0,1,18.064,0h3.391A.55.55,0,0,1,22,.544V3.937a.542.542,0,0,1-.545.539H20.274V17.525h1.181a.548.548,0,0,1,.545.539v3.391a.549.549,0,0,1-.545.545Z" fill="#fff"/>
      </g>
    </g>
  </g>
</svg>
